PathFileType	4	(X/Y/Z)	Patient4_TMGait_0pt6_01_left_33.trc.trc
DataRate	CameraRate	NumFrames	NumMarkers	Units	OrigDataRate	OrigDataStartFrame	OrigNumFrames
82.352941176471	82.352941176471	6	33	mm	82.352941176471	106	       141
Frame#	Time	Sacral			L.Shoulder			Chest			R.Shoulder			Neck			R.ASIS			L.ASIS			R.Thigh.Superior			R.Thigh.Lateral			R.Thigh.Inferior			R.Patella			L.Thigh.Superior			L.Thigh.Lateral			L.Thigh.Inferior			L.Patella			L.Shank.Superior			L.Shank.Lateral			L.Shank.Inferior			R.Shank.Superior			R.Shank.Lateral			R.Shank.Inferior			R.Heel			R.Midfoot.Superior			R.Midfoot.Lateral			R.Toe			L.Heel			L.Midfoot.Lateral			L.Midfoot.Superior			L.Toe			L.Elbow			L.Wrist			R.Elbow			R.Wrist			
		X1	Y1	Z1	X2	Y2	Z2	X3	Y3	Z3	X4	Y4	Z4	X5	Y5	Z5	X6	Y6	Z6	X7	Y7	Z7	X8	Y8	Z8	X9	Y9	Z9	X10	Y10	Z10	X11	Y11	Z11	X12	Y12	Z12	X13	Y13	Z13	X14	Y14	Z14	X15	Y15	Z15	X16	Y16	Z16	X17	Y17	Z17	X18	Y18	Z18	X19	Y19	Z19	X20	Y20	Z20	X21	Y21	Z21	X22	Y22	Z22	X23	Y23	Z23	X24	Y24	Z24	X25	Y25	Z25	X26	Y26	Z26	X27	Y27	Z27	X28	Y28	Z28	X29	Y29	Z29	X30	Y30	Z30	X31	Y31	Z31	X32	Y32	Z32	X33	Y33	Z33	

106	41.445000000000	758.324148550790	1010.796465889512	515.845477591626	910.479595962673	1435.654160699503	320.790072101571	1030.139959794674	1373.161537639281	472.026537229080	961.822134838361	1446.214515642657	652.030211533545	904.301262623864	1497.671457373799	474.615118959542	989.393533279785	946.559310472941	619.285659904713	961.944516061402	967.418977949051	347.554641329690	1013.748851930930	737.502058071838	583.290212109340	925.856052446896	633.169975654684	643.907500528904	992.108899057638	577.673677120747	558.674593691375	984.637510767667	490.813511081496	560.894828935882	1054.123788015432	793.332943918150	379.512129013295	1020.172683018865	667.982698743598	294.951130225777	1125.412387174466	610.846000081282	356.247602104455	1149.030326054716	529.851853755773	347.689723461052	1105.379993137157	454.010323196074	336.938041707534	991.583037391202	366.310914546406	282.287624622059	1026.589613634165	239.431861947862	334.323608819826	955.623598473118	402.912738330904	565.590470832664	884.096283943933	298.943787051482	625.248773592844	920.158378937616	205.571356618731	556.952420297434	780.898948072203	43.019323326412	525.320470435035	952.907294845370	96.743474172978	559.036037457098	865.028572259337	36.827744225617	598.792259345868	1073.268996939820	42.325264669389	584.910211045064	872.886172237409	112.088506116527	364.782944654764	944.250026637021	89.296874852533	286.691662753422	1039.119724250057	131.546568849306	310.807887541820	1150.028588670088	52.398127325009	286.616900822695	846.861806278683	1080.372839037346	221.168419103353	867.394001370867	821.940761446420	219.425235659573	1045.385666223986	1115.232573653596	781.387840896894	1293.768883801465	1104.384574253941	728.181155076625	
107	41.457142857143	757.549886769755	1011.395552377559	516.427325143775	910.427375253834	1435.859837830536	321.129305849963	1030.512168568225	1372.675781396742	471.716859114130	963.380011607712	1445.976046106833	652.055497474015	905.007327961248	1497.700820256380	474.869723999829	988.526372450298	946.128238334694	618.883422180256	960.534608899408	967.572099882605	347.188277115118	1010.575094708716	736.623281744253	582.964292512147	921.602791121242	633.145757940065	643.954947488409	986.881826023967	576.978233202549	558.639205566241	978.567285897646	490.463639437626	560.962004316515	1051.814057879184	792.866928586863	379.265028160457	1016.865202741988	667.463591266497	294.714265342954	1121.351563537169	609.825737489872	356.482839527954	1145.900566073960	531.388622648561	348.449395298399	1107.034487637753	455.677231703415	336.986298101421	1001.468259728313	359.869936514451	280.523765389337	1045.445226410019	235.855087246769	333.100601392254	949.296717787583	402.663914384024	565.626548370897	877.449952905030	298.924001363563	625.295319071647	913.228527738054	205.428691357087	556.969584115622	773.585477046361	43.074218879087	525.306284783082	945.580856823948	96.622659708273	558.967949790093	857.700385291630	36.842860500793	598.782058349777	1065.930457137114	42.206989588892	584.992963378650	902.274816660535	96.444519255036	361.614942497538	976.194600133570	80.062719188503	284.205814147581	1066.974115266482	129.471228073462	309.539714606031	1184.051060861562	59.607011444592	286.326349278474	839.333974109726	1082.471916374568	221.099849278929	854.265259325813	823.714589366236	219.518872450345	1053.225412874812	1117.114829813680	780.266028758533	1300.347612062853	1122.513222221392	723.882175736272	
108	41.469285714286	756.793753313747	1011.882039571690	516.901182641860	910.501308073244	1435.963959640340	321.375352839651	1030.947433792313	1372.034137150206	471.351371882156	964.955591610002	1445.577882710243	651.989156554378	905.768692853014	1497.604047173121	475.055197174281	987.691657510064	945.585658826581	618.370556811668	959.109940491272	967.550457750965	346.702183030046	1007.534637127824	735.710389452370	582.622198879487	917.493822427803	633.049941528871	643.909647044272	981.848814848993	576.254393995287	558.539048841918	972.713017912871	490.062181785006	560.935528205235	1049.079857410116	791.704229005879	378.757055344153	1012.817722882655	666.444659808257	294.193418332198	1116.401525941998	608.057778943715	356.666478939140	1141.838313399118	532.376880005297	349.216673100096	1107.759120366718	457.196806418367	337.057890429371	1011.018216334253	353.771359491679	278.792715655994	1063.654977648350	233.348633485588	332.188801048791	943.135735176923	402.369947571859	565.577763302426	870.946565149587	298.894116248215	625.293147440975	906.366981291557	205.257828633461	556.941088823324	766.270006098945	43.134863478385	525.297296979564	938.255912102236	96.498699419766	558.885642064854	850.376132054767	36.857517045348	598.773282080745	1058.600226162178	42.081453653771	585.068045945098	931.771162888315	82.813373012954	358.776526831376	1007.947695246784	72.596482893113	282.300389153549	1094.121765126526	128.861148650187	308.868647483349	1216.651749951245	68.458766921334	287.195765717331	832.365739752540	1084.489510546261	221.067564614240	841.875069793667	825.546802148039	219.465984426892	1060.870626380500	1118.927039422768	778.988857034669	1305.682943918564	1139.954134261806	719.530595329158	
109	41.481428571429	756.065627053996	1012.253234637646	517.266255406552	910.675642663647	1435.969058998053	321.520880077945	1031.427825714853	1371.257162593583	470.928206930961	966.522387656572	1445.047086886935	651.820811489634	906.563894572021	1497.391147268730	475.162155158383	986.912196854041	944.950822077506	617.746378631380	957.667314591238	967.373452792889	346.104889253470	1004.650471826916	734.772285087746	582.238081051247	913.568924303095	632.885322481820	643.762596153855	977.043290716629	575.503585656775	558.359261393412	967.105191489103	489.601221411537	560.804447409625	1045.966887645523	789.957066330678	378.031660491186	1008.256010310056	665.063396898094	293.368062713391	1110.823169800235	605.761999639697	356.791040916785	1137.122411927071	532.947327831712	349.917829944852	1107.708413047145	458.612920365451	337.083891843214	1020.008168271426	348.223836867508	277.243886542708	1080.853009738014	231.977895877425	331.612210050830	937.164315493691	402.030793070346	565.441019671293	864.603646063912	298.858890777314	625.239179110850	899.583716133992	205.061465528218	556.866751380942	758.953487994830	43.202169647434	525.297257894320	930.936759735453	96.379939411435	558.801707938116	843.055860150918	36.871373269401	598.768499141612	1051.280211444528	41.949279851613	585.135700890437	960.643663730761	71.484664242413	356.576756214167	1038.674858414496	67.009468384044	281.123977661116	1119.943112069017	129.688886630181	308.754731284942	1247.124861439093	78.643597544391	288.925216968645	826.051149684883	1086.368561178762	221.055633614514	830.279363846993	827.368660848280	219.253746963167	1068.268134057108	1120.677145562109	777.577725064082	1309.855621201286	1156.590021758801	715.167799873580	
110	41.493571428571	755.375497286312	1012.508681919237	517.520946460872	910.915473061490	1435.882449711515	321.559385150210	1031.930977245351	1370.372374536532	470.442532595005	968.051028701210	1444.412724493362	651.540656957842	907.366585133366	1497.076940644107	475.177704115650	986.208474324623	944.244085008484	617.006525899475	956.209687677460	967.063916108538	345.399430016069	1001.938976818461	733.816789764970	581.780129129582	909.859505174000	632.658107853972	643.506374873951	972.485428240861	574.727871936923	558.083115412320	961.762011697008	489.075679007939	560.560028077344	1042.556338182193	787.781647824581	377.138183167765	1003.438634727708	663.464617280667	292.258809911505	1104.927351268642	603.185422794121	356.846048111216	1132.063420535904	533.232559121891	350.478904287526	1107.058096680320	459.941039533376	337.003935582534	1028.177757288784	343.368008157274	276.031812740571	1096.657348827587	231.681188368372	331.372123261362	931.397647688274	401.648553360882	565.216378480974	858.430887446032	298.823785098228	625.133726461622	892.883810599192	204.843538233329	556.748690440979	751.636725925195	43.277939545317	525.308941171574	923.627347987669	96.273541828706	558.727831627974	835.738915681335	36.884194766638	598.770029924074	1043.970782706607	41.811132778100	585.196176775767	988.081572886472	62.567355333584	355.294991676644	1067.464761001733	63.241605427781	280.771364348571	1143.789070013087	131.763815782963	309.108649648219	1274.770187203667	89.656244445667	291.107326614598	820.462731362437	1088.061532486228	221.034910055424	819.555597532708	829.119127599775	218.880904055593	1075.361038003878	1122.370612304637	776.054597573921	1312.958549796958	1172.314879019335	710.829745735725	
111	41.505714285714	754.733085561406	1012.649791951770	517.661706961292	911.179428836535	1435.714344563459	321.484479322667	1032.431422421852	1369.411998811251	469.885920342782	969.510775422861	1443.703549984612	651.139880583260	908.146951260996	1496.678850433507	475.086977565430	985.596875348903	943.484913004540	616.145330279267	954.748632302621	966.645489567818	344.584496385546	999.409234082136	732.850028820660	581.216683783584	906.386781455022	632.376284192618	643.137125845036	968.184594309051	573.929108688197	557.696503192064	956.692318928870	488.482484033532	560.198378443093	1038.967400647131	785.366951454502	376.125979168907	998.631283065090	661.781519425461	290.933759933125	1099.047819818793	600.572554317870	356.818557090198	1126.977184979131	533.345980425763	350.837919801386	1105.986626503142	461.160531876606	336.784454617577	1035.260384502318	339.264098089245	275.292852774813	1110.689052235047	232.271612279520	331.455209426527	925.844486325992	401.225845760659	564.907853829808	852.431786923742	298.794176906257	624.981153475371	886.268554939879	204.608396108396	556.591688701762	744.320351522442	43.364827642293	525.333884111351	916.330457353064	96.184307381623	558.672773521409	828.424259780898	36.896069529890	598.779640048303	1036.670902465979	41.667640382183	585.249734016501	1013.240632359192	55.983355882061	355.136021088074	1093.395428228392	61.069835667807	281.269607109862	1165.022264105427	134.745286799980	309.812805451089	1298.939093578983	100.831536095870	293.299757447125	815.645548040317	1089.531763577875	220.967379130327	809.794500616543	830.743235509476	218.353923691860	1082.090196393377	1124.008155214248	774.441184772329	1315.093031693234	1187.033513382945	706.546015217564	
